<svg width="340" height="96" viewBox="0 0 340.002 96" xmlns="http://www.w3.org/2000/svg"><defs><clipPath id="c"><path d="M0 150h496V0H0z"/></clipPath><clipPath id="d"><path d="M23.894 122.43V34.762c0-4.133 3.382-7.514 7.515-7.514h95.181c4.133 0 7.515 3.381 7.515 7.514v87.668zm37.572-15.029a5.009 5.009 0 005.01 5.01h25.048c2.767 0 5.01-2.242 5.01-5.01s-2.243-5.01-5.01-5.01H66.476a5.009 5.009 0 00-5.01 5.01"/></clipPath><clipPath id="e"><path d="M31.409 34.76v-.116l.001-.089v-.088l.001-.07v-.1l.001-.008.001-.106v-.047l.001-.012v-.08l.001-.046v-.017l.003-.145v-.005l.006-.237v-.052l.001-.015v-.02l.003-.115.002-.034.002-.072v-.004l.001-.046v-.012l.006-.154.001-.02.003-.105v-.006l.002-.033v-.014l.001-.013v-.004l.011-.267.006-.142.001-.011.001-.024v-.007l.001-.006.002-.054.002-.032v-.006l.001-.005v-.013l.006-.108.002-.039v-.003l.014-.239.003-.059.001-.008v-.009l.008-.133v-.002l.001-.005v-.002l.02-.299v-.004l.005-.059.003-.047.002-.041.001-.006c.029-.395.063-.791.101-1.184l.004-.038a31.184 31.184 0 00.015-.15l.006-.063c.042-.399.088-.796.139-1.192l.002-.017.013-.103a.569.569 0 00.005-.038l.012-.086.01-.076.007-.054c.046-.334.095-.667.148-.998h94.002c.076.48.145.961.206 1.446l.001.008.012.094.009.071.008.064.012.105.005.04.016.132.002.019a46.393 46.393 0 01.221 2.474l.001.003v.01l.008.134.001.002v.007l.004.073.007.114.006.117v.001l.004.065.001.012v.016l.001.008a.397.397 0 01.001.035l.001.007v.005l.001.005v.015l.003.056.002.046.001.024h.001v.009l.012.276v.003l.001.013v.004l.001.024v.005l.005.118v.02l.004.099.002.038v.013l.003.087.002.061v.011l.002.045.002.086.001.01v.011l.003.106v.025l.001.024v.003l.001.021.002.089.003.172.001.021v.034l.001.066.001.007v.052l.001.061v.005l.001.029v.031l.001.038v.01l.001.113v.004l.001.05v.048l.001.072v.292c0 26.284-21.306 47.591-47.59 47.591-26.283 0-47.591-21.307-47.591-47.591"/></clipPath><clipPath id="f"><path d="M23.894 122.43V34.762c0-4.133 3.382-7.514 7.515-7.514h95.181c4.133 0 7.515 3.381 7.515 7.514v87.668zm37.572-15.029a5.009 5.009 0 005.01 5.01h25.048c2.767 0 5.01-2.242 5.01-5.01s-2.243-5.01-5.01-5.01H66.476a5.009 5.009 0 00-5.01 5.01"/></clipPath><clipPath id="g"><path d="M23.895 122.43h110.21V74.839H23.895z"/></clipPath><clipPath id="h"><path d="M23.894 122.43V34.762c0-4.133 3.382-7.514 7.515-7.514h95.181c4.133 0 7.515 3.381 7.515 7.514v87.668zm37.572-15.029a5.009 5.009 0 005.01 5.01h25.048c2.767 0 5.01-2.242 5.01-5.01s-2.243-5.01-5.01-5.01H66.476a5.009 5.009 0 00-5.01 5.01"/></clipPath><clipPath id="i"><path d="M23.895 75.463h110.21v-.626H23.895z"/></clipPath><clipPath id="j"><path d="M23.895 74.837h110.21v-.626H23.895z"/></clipPath><clipPath id="k"><path d="M23.895 122.43h110.21v-20.665H23.895z"/></clipPath><clipPath id="l"><path d="M23.895 113.04h110.21V27.251H23.895z"/></clipPath><clipPath id="m"><path d="M23.894 122.43V34.762c0-4.133 3.382-7.514 7.515-7.514h95.181c4.133 0 7.515 3.381 7.515 7.514v87.668zm37.572-15.029a5.009 5.009 0 005.01 5.01h25.048c2.767 0 5.01-2.242 5.01-5.01s-2.243-5.01-5.01-5.01H66.476a5.009 5.009 0 00-5.01 5.01"/></clipPath><clipPath id="a"><path d="M-32768 32767h65535v-65535h-65535z"/></clipPath><radialGradient id="b" cx="0" cy="0" r="1" gradientTransform="translate(23.583 122.84) scale(142.52)" gradientUnits="userSpaceOnUse"><stop stop-color="#fff" stop-opacity=".1" offset="0"/><stop stop-color="#fff" stop-opacity="0" offset="1"/></radialGradient><radialGradient id="o" cx="0" cy="0" r="1" gradientTransform="translate(23.583 122.84) scale(142.52)" gradientUnits="userSpaceOnUse"><stop stop-color="#fff" offset="0"/><stop stop-color="#fff" offset="1"/></radialGradient><mask id="n" x="0" y="0" width="1" height="1" maskUnits="userSpaceOnUse"><g clip-path="url(#a)"><path d="M-32768 32767h65535v-65535h-65535z" fill="url(#b)"/></g></mask></defs><path d="M0 0h340v96H0z" fill="#fff"/><path d="M340 0H0v96h340zm-.688 95.352H.682V.649h338.63z" fill="#dadce0"/><g stroke-width="2.055"><g clip-path="url(#c)" transform="matrix(.64865 0 0 -.64865 -.649 96.649)"><path d="M173.13 43.839c-3.897 0-7.166 1.319-9.805 3.959-2.639 2.639-3.959 5.932-3.959 9.879 0 3.946 1.32 7.239 3.959 9.879 2.639 2.638 5.908 3.959 9.805 3.959 3.996 0 7.239-1.444 9.731-4.329l-2.368-2.294c-1.801 2.244-4.255 3.367-7.363 3.367-2.886 0-5.322-.975-7.307-2.923-1.986-1.949-2.979-4.502-2.979-7.659 0-3.158.993-5.711 2.979-7.659 1.985-1.95 4.421-2.923 7.307-2.923 3.182 0 5.896 1.282 8.14 3.848l2.368-2.369c-1.209-1.455-2.726-2.608-4.551-3.459-1.826-.85-3.811-1.276-5.957-1.276M190.08 70.923v-8.362l-.148-2.516h.148c.493.863 1.27 1.597 2.331 2.201a6.756 6.756 0 003.404.906c2.244 0 3.959-.69 5.143-2.071 1.184-1.382 1.776-3.232 1.776-5.551V44.431h-3.404v10.582c0 3.354-1.493 5.032-4.477 5.032-1.406 0-2.553-.561-3.441-1.684s-1.332-2.423-1.332-3.903V44.431h-3.404v26.492zM210.13 44.431h-3.404v18.13h3.256v-2.96h.148c.345.986 1.054 1.801 2.127 2.442s2.115.962 3.127.962c1.011 0 1.862-.148 2.553-.444l-1.295-3.182c-.444.172-1.049.259-1.813.259-1.234 0-2.325-.487-3.275-1.462-.949-.974-1.424-2.251-1.424-3.829zM223.17 48.741c1.171-1.196 2.559-1.795 4.163-1.795 1.603 0 2.99.599 4.162 1.795s1.758 2.78 1.758 4.755c0 1.973-.586 3.558-1.758 4.754s-2.559 1.795-4.162 1.795c-1.604 0-2.992-.599-4.163-1.795s-1.757-2.781-1.757-4.754c0-1.975.586-3.559 1.757-4.755m-2.534 11.655c1.751 1.837 3.983 2.756 6.697 2.756 2.713 0 4.945-.919 6.697-2.756 1.751-1.838 2.627-4.138 2.627-6.9 0-2.764-.876-5.064-2.627-6.901-1.752-1.838-3.984-2.756-6.697-2.756-2.714 0-4.946.918-6.697 2.756-1.752 1.837-2.627 4.137-2.627 6.901 0 2.762.875 5.062 2.627 6.9M239.4 44.431v18.13h3.256v-2.516h.148c.518.864 1.314 1.597 2.387 2.201 1.073.605 2.139.907 3.2.907 2.812 0 4.723-1.16 5.735-3.478 1.481 2.318 3.59 3.478 6.327 3.478 2.147 0 3.762-.685 4.847-2.053 1.086-1.369 1.628-3.226 1.628-5.569v-11.1h-3.403v10.582c0 1.825-.333 3.12-1 3.885-.666.764-1.678 1.147-3.034 1.147-1.332 0-2.436-.568-3.311-1.702-.876-1.135-1.314-2.43-1.314-3.885V44.431h-3.404v10.582c0 1.825-.333 3.12-.999 3.885-.665.764-1.677 1.147-3.034 1.147-1.332 0-2.436-.568-3.311-1.702-.876-1.135-1.314-2.43-1.314-3.885V44.431zM284.02 55.679c-.074 1.036-.549 2.022-1.425 2.96-.875.937-2.177 1.406-3.903 1.406-1.258 0-2.35-.395-3.275-1.184-.924-.789-1.56-1.85-1.905-3.182zm-4.884-11.84c-2.738 0-4.965.912-6.679 2.738-1.714 1.825-2.571 4.131-2.571 6.919 0 2.639.832 4.909 2.497 6.808s3.793 2.849 6.383 2.849c2.689 0 4.841-.876 6.456-2.627s2.424-4.095 2.424-7.03l-.037-.63h-14.318c.097-1.825.708-3.268 1.831-4.328 1.122-1.061 2.435-1.591 3.94-1.591 2.442 0 4.095 1.036 4.958 3.108l3.034-1.258c-.592-1.406-1.566-2.584-2.923-3.534-1.357-.949-3.022-1.424-4.995-1.424M328.87 70.923l-7.067-26.492h-3.479l-5.697 17.464h-.149l-5.698-17.464h-3.477l-7.364 26.492h3.552l5.588-20.831h.147l5.736 17.279h3.181l5.736-17.279h.147l5.291 20.831zM342.59 55.679c-.074 1.036-.549 2.022-1.425 2.96-.875.937-2.177 1.406-3.903 1.406-1.258 0-2.35-.395-3.275-1.184-.924-.789-1.56-1.85-1.905-3.182zm-4.884-11.84c-2.738 0-4.965.912-6.679 2.738-1.714 1.825-2.571 4.131-2.571 6.919 0 2.639.832 4.909 2.497 6.808s3.793 2.849 6.383 2.849c2.689 0 4.841-.876 6.456-2.627s2.424-4.095 2.424-7.03l-.037-.63h-14.318c.097-1.825.708-3.268 1.831-4.328 1.122-1.061 2.435-1.591 3.94-1.591 2.442 0 4.095 1.036 4.958 3.108l3.034-1.258c-.592-1.406-1.566-2.584-2.923-3.534-1.357-.949-3.022-1.424-4.995-1.424M358.35 46.946c1.579 0 2.936.599 4.07 1.795 1.135 1.196 1.702 2.78 1.702 4.755 0 1.972-.567 3.557-1.702 4.754-1.134 1.196-2.491 1.795-4.07 1.795-1.604 0-2.966-.592-4.088-1.777-1.123-1.183-1.683-2.774-1.683-4.772s.56-3.59 1.683-4.774c1.122-1.183 2.484-1.776 4.088-1.776m.556-3.107c-1.382 0-2.621.295-3.719.887s-1.918 1.332-2.461 2.22h-.147V44.43h-3.256v26.493h3.403V62.56l-.147-2.515h.147c.543.887 1.363 1.628 2.461 2.219 1.098.592 2.337.888 3.719.888 2.342 0 4.366-.925 6.067-2.774 1.702-1.851 2.554-4.145 2.554-6.882 0-2.738-.852-5.032-2.554-6.883-1.701-1.85-3.725-2.774-6.067-2.774M385.73 43.839c-1.924 0-3.805.629-5.643 1.887-1.837 1.258-3.04 3.021-3.607 5.291l3.108 1.258a7.1 7.1 0 012.276-3.682c1.147-.999 2.435-1.498 3.866-1.498 1.48 0 2.744.389 3.793 1.165 1.048.777 1.572 1.832 1.572 3.164 0 1.479-.524 2.62-1.572 3.422-1.049.802-2.708 1.548-4.977 2.239-2.343.739-4.12 1.695-5.328 2.867-1.209 1.171-1.812 2.67-1.812 4.495 0 1.9.752 3.553 2.257 4.958 1.504 1.407 3.464 2.11 5.882 2.11 2.245 0 4.071-.562 5.476-1.684 1.406-1.123 2.318-2.349 2.738-3.681l-3.108-1.295c-.222.838-.771 1.615-1.647 2.331-.875.715-2.003 1.073-3.384 1.073-1.308 0-2.424-.364-3.349-1.092-.925-.727-1.388-1.634-1.388-2.72 0-.986.426-1.819 1.277-2.497s2.102-1.289 3.756-1.831c1.306-.42 2.398-.827 3.274-1.221a15.225 15.225 0 002.664-1.573 6.273 6.273 0 002.035-2.442c.456-.975.685-2.103.685-3.385 0-1.283-.266-2.43-.796-3.441-.531-1.012-1.234-1.813-2.11-2.406a10.607 10.607 0 00-5.938-1.812M405.05 44.135c-1.899 0-3.349.505-4.348 1.517-.999 1.011-1.498 2.442-1.498 4.292v9.509h-3.182v3.108h3.182v5.55h3.404v-5.55h4.44v-3.108h-4.44v-9.25c0-1.974.814-2.961 2.442-2.961.616 0 1.134.099 1.554.297l1.184-2.924c-.74-.32-1.653-.48-2.738-.48M414.24 48.741c1.172-1.196 2.559-1.795 4.163-1.795 1.603 0 2.99.599 4.162 1.795 1.171 1.196 1.758 2.78 1.758 4.755 0 1.973-.587 3.558-1.758 4.754-1.172 1.196-2.559 1.795-4.162 1.795-1.604 0-2.991-.599-4.163-1.795s-1.757-2.781-1.757-4.754c0-1.975.585-3.559 1.757-4.755m-2.534 11.655c1.751 1.837 3.983 2.756 6.697 2.756 2.713 0 4.945-.919 6.696-2.756 1.752-1.838 2.627-4.138 2.627-6.9 0-2.764-.875-5.064-2.627-6.901-1.751-1.838-3.983-2.756-6.696-2.756-2.714 0-4.946.918-6.697 2.756-1.752 1.837-2.627 4.137-2.627 6.901 0 2.762.875 5.062 2.627 6.9M433.87 44.431h-3.403v18.13h3.256v-2.96h.147c.346.986 1.055 1.801 2.128 2.442s2.115.962 3.127.962c1.011 0 1.861-.148 2.553-.444l-1.295-3.182c-.445.172-1.049.259-1.814.259-1.233 0-2.325-.487-3.274-1.462-.95-.974-1.425-2.251-1.425-3.829zM455.88 55.679c-.074 1.036-.549 2.022-1.425 2.96-.875.937-2.177 1.406-3.903 1.406-1.258 0-2.35-.395-3.275-1.184-.924-.789-1.56-1.85-1.905-3.182zm-4.884-11.84c-2.738 0-4.965.912-6.679 2.738-1.714 1.825-2.571 4.131-2.571 6.919 0 2.639.832 4.909 2.497 6.808s3.793 2.849 6.383 2.849c2.689 0 4.841-.876 6.456-2.627s2.424-4.095 2.424-7.03l-.037-.63h-14.318c.097-1.825.708-3.268 1.831-4.328 1.122-1.061 2.435-1.591 3.94-1.591 2.442 0 4.095 1.036 4.958 3.108l3.034-1.258c-.592-1.406-1.566-2.584-2.923-3.534-1.357-.949-3.022-1.424-4.995-1.424M167.02 93.402h6.664l-3.276 9.044h-.112zm-5.684-7.84l7.56 20.048h2.912l7.56-20.048h-2.856l-1.932 5.432h-8.428l-1.96-5.432zM183.96 85.562l-5.544 13.72h2.8l4.032-10.64h.056l4.088 10.64h2.744l-5.6-13.72zM198.3 87.466c1.064 0 2.03.396 2.898 1.189s1.302 1.732 1.302 2.815c-.728.597-1.82.895-3.276.895-1.251 0-2.194-.27-2.828-.811-.635-.542-.952-1.176-.952-1.904 0-.672.289-1.205.868-1.596.578-.393 1.241-.588 1.988-.588m-.42-2.353c-1.456 0-2.674.42-3.654 1.26-.98.841-1.47 1.951-1.47 3.332 0 1.493.578 2.665 1.736 3.515 1.157.849 2.585 1.273 4.284 1.273 1.512 0 2.753-.279 3.724-.84v.393c0 1.008-.346 1.815-1.036 2.422-.691.606-1.54.91-2.548.91a3.952 3.952 0 01-2.03-.532c-.607-.356-1.022-.84-1.246-1.456l-2.352 1.008c.317.821.942 1.582 1.876 2.282.933.7 2.165 1.05 3.696 1.05 1.754 0 3.21-.514 4.368-1.54 1.157-1.027 1.736-2.474 1.736-4.34v-8.288H202.5v1.904h-.112c-1.027-1.568-2.53-2.353-4.508-2.353M210.67 85.562h-2.576v13.72h2.576zm0 17.164c-.355-.354-.784-.532-1.288-.532s-.934.178-1.288.532c-.355.355-.533.784-.533 1.288s.178.933.533 1.288c.354.355.784.532 1.288.532s.933-.177 1.288-.532c.354-.355.532-.784.532-1.288s-.178-.933-.532-1.288M216.61 85.562h-2.576v20.048h2.576zM224.36 87.466c1.064 0 2.03.396 2.898 1.189s1.302 1.732 1.302 2.815c-.728.597-1.82.895-3.276.895-1.251 0-2.194-.27-2.828-.811-.635-.542-.952-1.176-.952-1.904 0-.672.289-1.205.868-1.596.578-.393 1.241-.588 1.988-.588m-.42-2.353c-1.456 0-2.674.42-3.654 1.26-.98.841-1.47 1.951-1.47 3.332 0 1.493.578 2.665 1.736 3.515 1.157.849 2.585 1.273 4.284 1.273 1.512 0 2.753-.279 3.724-.84v.393c0 1.008-.346 1.815-1.036 2.422-.691.606-1.54.91-2.548.91a3.952 3.952 0 01-2.03-.532c-.607-.356-1.022-.84-1.246-1.456l-2.352 1.008c.317.821.942 1.582 1.876 2.282.933.7 2.165 1.05 3.696 1.05 1.754 0 3.21-.514 4.368-1.54 1.157-1.027 1.736-2.474 1.736-4.34v-8.288h-2.464v1.904h-.112c-1.027-1.568-2.53-2.353-4.508-2.353M240.77 87.466c1.194 0 2.221.452 3.08 1.357.858.906 1.288 2.105 1.288 3.599 0 1.493-.43 2.692-1.288 3.598-.859.905-1.886 1.358-3.08 1.358-1.213 0-2.245-.448-3.094-1.345-.849-.895-1.274-2.099-1.274-3.611 0-1.513.425-2.717 1.274-3.612.849-.897 1.881-1.344 3.094-1.344m.42-2.353c-1.045 0-1.983.225-2.814.672-.831.449-1.452 1.009-1.862 1.681h-.112v-1.904h-2.464v20.048h2.576v-6.329l-.112-1.903h.112c.41.672 1.031 1.232 1.862 1.68s1.769.672 2.814.672c1.773 0 3.304-.701 4.592-2.1 1.289-1.4 1.931-3.137 1.931-5.208 0-2.072-.642-3.809-1.931-5.208-1.288-1.4-2.819-2.101-4.592-2.101M252.5 85.562h-2.575v20.048h2.575zM265.41 94.074c-.057.784-.416 1.53-1.078 2.24-.663.709-1.649 1.065-2.954 1.065-.952 0-1.779-.299-2.479-.897-.7-.597-1.18-1.4-1.441-2.408zm-3.696-8.96c-2.073 0-3.757.69-5.054 2.072-1.298 1.381-1.946 3.126-1.946 5.237 0 1.997.63 3.714 1.889 5.151 1.26 1.437 2.87 2.156 4.83 2.156 2.035 0 3.664-.663 4.886-1.988 1.223-1.325 1.834-3.099 1.834-5.319l-.027-.477H257.29c.074-1.382.536-2.474 1.386-3.275.848-.803 1.842-1.204 2.981-1.204 1.849 0 3.099.784 3.753 2.351l2.296-.952c-.448-1.063-1.186-1.955-2.212-2.674-1.027-.718-2.287-1.078-3.78-1.078M279.47 85.562h-2.576v13.72h2.576zm0 17.164c-.355-.354-.784-.532-1.288-.532s-.934.178-1.288.532c-.355.355-.533.784-.533 1.288s.178.933.533 1.288c.354.355.784.532 1.288.532s.933-.177 1.288-.532c.354-.355.532-.784.532-1.288s-.178-.933-.532-1.288M285.29 99.282v-1.903h.111c.374.652.962 1.208 1.765 1.666a5.12 5.12 0 002.576.685c1.698 0 2.996-.522 3.892-1.568.896-1.045 1.344-2.445 1.344-4.199v-8.401h-2.577v8.008c0 2.538-1.129 3.809-3.387 3.809-1.064 0-1.932-.425-2.604-1.275-.672-.849-1.009-1.834-1.009-2.954v-7.588h-2.575v13.72zM310.1 85.338c-1.437 0-2.534.382-3.29 1.147-.756.766-1.134 1.849-1.134 3.249v7.196h-2.408v2.351h2.408v4.201h2.576v-4.201h3.36V96.93h-3.36v-7c0-1.494.617-2.24 1.848-2.24.467 0 .858.074 1.176.223l.896-2.212c-.56-.242-1.251-.363-2.072-.363M316.79 105.61v-6.328l-.111-1.903h.111c.374.652.962 1.208 1.765 1.666a5.117 5.117 0 002.576.685c1.698 0 2.996-.522 3.891-1.568.897-1.045 1.344-2.446 1.344-4.199v-8.401h-2.576v8.008c0 2.538-1.129 3.809-3.388 3.809-1.063 0-1.931-.425-2.603-1.275-.672-.849-1.009-1.834-1.009-2.954v-7.588h-2.575v20.048zM339.3 94.074c-.057.784-.416 1.53-1.078 2.24-.663.709-1.649 1.065-2.954 1.065-.952 0-1.779-.299-2.479-.897-.7-.597-1.18-1.4-1.441-2.408zm-3.696-8.96c-2.073 0-3.757.69-5.054 2.072-1.298 1.381-1.946 3.126-1.946 5.237 0 1.997.63 3.714 1.889 5.151 1.26 1.437 2.87 2.156 4.83 2.156 2.035 0 3.664-.663 4.886-1.988 1.223-1.325 1.834-3.099 1.834-5.319l-.027-.477H331.18c.074-1.382.536-2.474 1.386-3.275.848-.803 1.842-1.204 2.981-1.204 1.849 0 3.099.784 3.753 2.351l2.296-.952c-.448-1.063-1.186-1.955-2.212-2.674-1.027-.718-2.287-1.078-3.78-1.078" fill="#5f6368"/></g><g clip-path="url(#d)" transform="matrix(.64865 0 0 -.64865 -.649 96.649)"><path d="M23.895 122.43h110.21V27.248H23.895z" fill="#eee"/><path d="M91.524 112.41H66.476a5.01 5.01 0 110-10.019h25.048a5.008 5.008 0 015.01 5.009 5.009 5.009 0 01-5.01 5.01" fill="#fff"/></g><g clip-path="url(#e)" transform="matrix(.64865 0 0 -.64865 -.649 96.649)"><path d="M38.967 82.351V23.946h21.297L79 56.395h47.591v25.956zV23.946h21.297L79 56.395h47.591v25.956z" fill="#db4437"/><path d="M31.409-12.831h45.299L97.736 8.197V23.94l-37.472.006-28.855 49.489zh45.299L97.736 8.197V23.94l-37.472.006-28.855 49.489z" fill="#0f9d58"/><path d="M79 56.396l18.736-32.449-21.022-36.778h49.877v69.227zl18.736-32.449-21.022-36.778h49.877v69.227z" fill="#ffcd40"/><path d="M79 56.396c11.949 0 21.635-9.687 21.635-21.636 0-11.948-9.686-21.635-21.635-21.635S57.365 22.812 57.365 34.76c0 11.949 9.686 21.636 21.635 21.636" fill="#f1f1f1"/><path d="M79 52.068c9.559 0 17.308-7.749 17.308-17.309 0-9.558-7.749-17.307-17.308-17.307s-17.308 7.749-17.308 17.307c0 9.56 7.749 17.309 17.308 17.309" fill="#4285f4"/></g><g clip-path="url(#f)" transform="matrix(.64865 0 0 -.64865 -.649 96.649)"><g clip-path="url(#g)" opacity=".05"><path d="M23.895 122.43h110.21V74.839H23.895z" fill="#212121"/></g></g><g clip-path="url(#h)" transform="matrix(.64865 0 0 -.64865 -.649 96.649)"><g clip-path="url(#i)" opacity=".02"><path d="M23.895 75.463h110.21v-.626H23.895z" fill="#212121"/></g><g clip-path="url(#j)" opacity=".05"><path d="M23.895 74.837h110.21v-.626H23.895z" fill="#fff"/></g><g clip-path="url(#k)" opacity=".02"><path d="M23.895 121.8h110.21v.626H23.895zm67.629-19.411H66.476a5 5 0 00-4.991 4.696 2.753 2.753 0 01-.019-.313 5.009 5.009 0 015.01-5.01h25.048a5.009 5.009 0 015.01 5.01c0 .106-.007.206-.019.313a5 5 0 00-4.991-4.696" fill="#212121"/></g><g clip-path="url(#l)" opacity=".1"><path d="M126.59 27.872H31.408c-4.132 0-7.514 3.382-7.514 7.515v-.627c0-4.133 3.382-7.514 7.514-7.514h95.182c4.133 0 7.515 3.381 7.515 7.514v.627c0-4.133-3.382-7.515-7.515-7.515m-60.115 84.537h25.048a5 5 0 004.991-4.697c.006.106.019.207.019.313a5.009 5.009 0 01-5.01 5.01H66.475a5.01 5.01 0 01-5.01-5.01c0-.106.007-.207.02-.313a5 5 0 004.99 4.697" fill="#231f20"/></g></g><g clip-path="url(#m)" transform="matrix(.64865 0 0 -.64865 -.649 96.649)"><g mask="url(#n)"><path d="M23.894 122.43V34.762c0-4.133 3.382-7.514 7.515-7.514h95.181c4.133 0 7.515 3.381 7.515 7.514v87.668zm37.572-15.029a5.009 5.009 0 005.01 5.01h25.048c2.767 0 5.01-2.242 5.01-5.01s-2.243-5.01-5.01-5.01H66.476a5.009 5.009 0 00-5.01 5.01" fill="url(#o)"/></g></g></g></svg>