<svg width="340" height="96" xmlns="http://www.w3.org/2000/svg"><defs><radialGradient id="a" cx="-15256" cy="8846.1" r="174.94" fx="-15267" gradientTransform="matrix(.76 .03 .05 -1.12 11536 10237)" gradientUnits="userSpaceOnUse"><stop stop-color="#ffea00" offset=".1"/><stop stop-color="#ffde00" offset=".17"/><stop stop-color="#ffbf00" offset=".28"/><stop stop-color="#ff8e00" offset=".43"/><stop stop-color="#ff272d" offset=".77"/><stop stop-color="#e0255a" offset=".87"/><stop stop-color="#cc2477" offset=".95"/><stop stop-color="#c42482" offset="1"/></radialGradient><radialGradient id="b" cx="-7884.4" cy="8442.2" r="306.99" gradientTransform="matrix(1.23 0 0 -1.23 9918.1 10132)" gradientUnits="userSpaceOnUse"><stop stop-color="#00ccda" offset="0"/><stop stop-color="#0083ff" offset=".22"/><stop stop-color="#007af9" offset=".26"/><stop stop-color="#0060e8" offset=".33"/><stop stop-color="#005fe7" offset=".33"/><stop stop-color="#2639ad" offset=".44"/><stop stop-color="#401e84" offset=".52"/><stop stop-color="#4a1475" offset=".57"/></radialGradient><radialGradient id="d" cx="-8792.5" cy="7205.2" r="103.55" gradientTransform="matrix(1.22 .12 .12 -1.22 10221 9822)" gradientUnits="userSpaceOnUse"><stop stop-color="#ffea00" offset="0"/><stop stop-color="#ff272d" offset=".5"/><stop stop-color="#c42482" offset="1"/></radialGradient><radialGradient id="e" cx="-8801.8" cy="7304.5" r="172.92" gradientTransform="matrix(1.22 .12 .12 -1.22 10221 9822)" gradientUnits="userSpaceOnUse"><stop stop-color="#ffe900" offset="0"/><stop stop-color="#ffaf0e" offset=".16"/><stop stop-color="#ff7a1b" offset=".32"/><stop stop-color="#ff4e26" offset=".47"/><stop stop-color="#ff2c2e" offset=".62"/><stop stop-color="#ff1434" offset=".76"/><stop stop-color="#ff0538" offset=".89"/><stop stop-color="#ff0039" offset="1"/></radialGradient><radialGradient id="f" cx="-8777.4" cy="7144.2" r="158.67" gradientTransform="matrix(1.22 .12 .12 -1.22 10221 9822)" gradientUnits="userSpaceOnUse"><stop stop-color="#ff272d" offset="0"/><stop stop-color="#c42482" offset=".5"/><stop stop-color="#620700" offset=".99"/></radialGradient><radialGradient id="g" cx="277.49" cy="231.11" r="303.48" fx="288.34" gradientTransform="matrix(1 0 0 -1 0 98.21)" gradientUnits="userSpaceOnUse"><stop stop-color="#ffea00" offset=".16"/><stop stop-color="#ffde00" offset=".23"/><stop stop-color="#ffbf00" offset=".37"/><stop stop-color="#ff8e00" offset=".54"/><stop stop-color="#ff272d" offset=".76"/><stop stop-color="#f92433" offset=".8"/><stop stop-color="#e91c45" offset=".84"/><stop stop-color="#cf0e62" offset=".89"/><stop stop-color="#b5007f" offset=".94"/></radialGradient><radialGradient id="h" cx="260.09" cy="371.86" r="345.87" gradientTransform="matrix(1 0 0 -1 0 98.21)" gradientUnits="userSpaceOnUse"><stop stop-color="#ffea00" offset=".28"/><stop stop-color="#fd0" offset=".4"/><stop stop-color="#ffba00" offset=".63"/><stop stop-color="#ff9100" offset=".86"/><stop stop-color="#ff6711" offset=".93"/><stop stop-color="#ff4a1d" offset=".99"/></radialGradient><linearGradient id="c" x1="209.78" x2="135.5" y1="101.08" y2="344.05" gradientTransform="matrix(1 0 0 -1 0 98.21)" gradientUnits="userSpaceOnUse"><stop stop-color="#000f43" stop-opacity=".4" offset="0"/><stop stop-color="#001962" stop-opacity=".17" offset=".48"/><stop stop-color="#002079" stop-opacity="0" offset="1"/></linearGradient><linearGradient id="i" x1="-9059.8" x2="-8940.6" y1="7275.7" y2="7306.1" gradientTransform="matrix(1.22 .12 .12 -1.22 10221 9822)" gradientUnits="userSpaceOnUse"><stop stop-color="#c42482" stop-opacity=".5" offset="0"/><stop stop-color="#ff272d" stop-opacity=".5" offset=".47"/><stop stop-color="#ff2c2c" stop-opacity=".51" offset=".49"/><stop stop-color="#ff7a1a" stop-opacity=".72" offset=".68"/><stop stop-color="#ffb20d" stop-opacity=".87" offset=".83"/><stop stop-color="#ffd605" stop-opacity=".96" offset=".94"/><stop stop-color="#ffe302" offset="1"/></linearGradient><linearGradient id="j" x1="129.91" x2="108.74" y1="1613.6" y2="1667.9" gradientTransform="matrix(1 .1 .1 -1 -232.8 1405)" gradientUnits="userSpaceOnUse"><stop stop-color="#891551" stop-opacity=".6" offset="0"/><stop stop-color="#c42482" stop-opacity="0" offset="1"/></linearGradient><linearGradient id="k" x1="-156.48" x2="-119.96" y1="-66.73" y2="-108.2" gradientTransform="matrix(1 .1 .1 -1 246.33 -155.36)" gradientUnits="userSpaceOnUse"><stop stop-color="#891551" stop-opacity=".5" offset=".01"/><stop stop-color="#ff272d" stop-opacity=".5" offset=".48"/><stop stop-color="#ff272d" stop-opacity="0" offset="1"/></linearGradient><linearGradient id="l" x1="-86.15" x2="-86.12" y1="-137.49" y2="-108.48" gradientTransform="matrix(1 .1 .1 -1 246.33 -155.36)" gradientUnits="userSpaceOnUse"><stop stop-color="#c42482" offset="0"/><stop stop-color="#c42482" stop-opacity=".81" offset=".08"/><stop stop-color="#c42482" stop-opacity=".57" offset=".21"/><stop stop-color="#c42482" stop-opacity=".36" offset=".33"/><stop stop-color="#c42482" stop-opacity=".2" offset=".45"/><stop stop-color="#c42482" stop-opacity=".09" offset=".56"/><stop stop-color="#c42482" stop-opacity=".02" offset=".67"/><stop stop-color="#c42482" stop-opacity="0" offset=".77"/></linearGradient><linearGradient id="m" x1="240.77" x2="359.36" y1="370" y2="104.8" gradientTransform="matrix(1 0 0 -1 0 98.21)" gradientUnits="userSpaceOnUse"><stop stop-color="#fff14f" offset="0"/><stop stop-color="#ffee4c" offset=".27"/><stop stop-color="#ffe643" offset=".45"/><stop stop-color="#ffd834" offset=".61"/><stop stop-color="#ffc41e" offset=".76"/><stop stop-color="#ffab02" offset=".89"/><stop stop-color="#ffa900" offset=".9"/><stop stop-color="#ffa000" offset=".95"/><stop stop-color="#ff9100" offset="1"/></linearGradient><linearGradient id="n" x1="264.18" x2="208" y1="217.47" y2="66.64" gradientTransform="matrix(1 0 0 -1 0 98.21)" gradientUnits="userSpaceOnUse"><stop stop-color="#ff8e00" offset="0"/><stop stop-color="#ff8e00" stop-opacity=".86" offset=".04"/><stop stop-color="#ff8e00" stop-opacity=".73" offset=".08"/><stop stop-color="#ff8e00" stop-opacity=".63" offset=".13"/><stop stop-color="#ff8e00" stop-opacity=".56" offset=".18"/><stop stop-color="#ff8e00" stop-opacity=".51" offset=".23"/><stop stop-color="#ff8e00" stop-opacity=".5" offset=".28"/><stop stop-color="#ff8e00" stop-opacity=".48" offset=".39"/><stop stop-color="#ff8e00" stop-opacity=".42" offset=".52"/><stop stop-color="#ff8e00" stop-opacity=".31" offset=".68"/><stop stop-color="#ff8e00" stop-opacity=".17" offset=".84"/><stop stop-color="#ff8e00" stop-opacity="0" offset="1"/></linearGradient></defs><path fill="#fff" fill-rule="evenodd" stroke="#dadce0" stroke-dashoffset="89.999" d="M.5.5h339v95H.5z"/><g stroke-width="5.303"><path d="M298.87-250.27c-9.29 10.82-13.62 35.17-4.2 59.85s23.86 19.32 32.86 44.49c11.88 33.21 6.35 77.83 6.35 77.83s14.28 41.36 24.24-2.57c22.03-82.53-59.25-159.27-59.25-179.6z" fill="url(#a)" transform="translate(16 65.896) scale(.18859)"/><path d="M185.49 92.36c95.15 0 172.23-77.5 172.23-173.06s-77.08-173.09-172.14-173.09S13.44-176.25 13.44-80.69C13.26 14.96 90.43 92.36 185.49 92.36z" fill="url(#b)" data-name="Path" transform="translate(16 65.896) scale(.18859)"/><path d="M314.54 26.02a95 95 0 01-11.69 7.06 271.38 271.38 0 0014.86-24.43 96.25 96.25 0 009.77-12.28c1.33-2.1 2.84-4.69 4.43-7.69 9.67-17.42 20.33-45.61 20.63-74.57v-2.21a100.07 100.07 0 00-2.21-21.69c.08.56.15 1.11.22 1.66-.09-.43-.16-.86-.25-1.29.14.79.26 1.55.38 2.32 2 16.77.57 33.12-6.47 45.18l-.34.51c3.65-18.33 4.87-38.56.81-58.82 0 0-1.62-9.85-13.73-39.75-7-17.21-19.33-31.32-30.26-41.6-9.58-11.85-18.28-19.8-23.08-24.85-10-10.55-14.22-18.46-15.94-23.62-1.5-.75-20.62-19.32-22.14-20-8.35 12.94-34.59 53.42-22.11 91.24 5.66 17.14 20 34.93 35 44.9.66.75 8.91 9.72 12.84 29.94 4.06 20.89 1.92 37.19-6.42 61.3-9.81 21.15-35 42.05-58.48 44.19-50.31 4.57-68.73-25.26-68.73-25.26 18 7.19 37.86 5.68 49.94-1.77s19.55-13.12 25.53-10.92 10.59-4.17 6.38-10.77a30.46 30.46 0 00-30.81-13.41c-12.2 2-23.37 11.64-39.35 2.29a31.91 31.91 0 01-3-2c-1.05-.69 3.42 1.05 2.38.27a78.76 78.76 0 01-10-6.68c-.24-.22 2.41.85 2.18.63-14.94-12.3-13.08-20.62-12.61-25.83.38-4.17 3.09-9.51 7.66-11.68 2.21 1.21 3.58 2.13 3.58 2.13s-.94-1.92-1.45-2.94c.18-.08.35-.06.53-.13 1.81.87 5.81 3.14 7.92 4.53a11.71 11.71 0 013.62 3.66s.72-.4.19-2.09a10.81 10.81 0 00-3.75-5.11h.17a31.76 31.76 0 014.6 3.2c.77-2.79 2.14-5.7 1.84-10.9-.19-3.66-.1-4.61-.74-6-.58-1.21.32-1.69 1.33-.43a12.49 12.49 0 00-.86-2.87v-.09c1.25-4.36 26.48-15.7 28.32-17a26.13 26.13 0 007.42-8.07c1.4-2.24 2.46-5.37 2.72-10.13.14-3.43-1.46-5.72-27-8.39-7-.69-11.07-5.74-13.4-10.41-.42-1-.86-1.92-1.29-2.83a22 22 0 01-1-3.27 61.22 61.22 0 0121.5-29.74c.56-.51-2.24.13-1.68-.38a62.41 62.41 0 015.74-2.71c1-.46-4.22-2.68-8.82-2.14a22 22 0 00-8.18 2.15c1-1 4.34-2.39 3.56-2.38-5 .77-11.32 3.71-16.69 7a4.24 4.24 0 01.32-1.69c-2.5 1.06-8.64 5.35-10.42 9a16.16 16.16 0 00.1-2.09 33.06 33.06 0 00-5.11 5.38l-.09.09c-14.49-5.84-27.25-6.22-38-3.6-2.36-2.37-3.51-.64-8.89-12.44-.37-.71.28.7 0 0-.88-2.29.54 3.05 0 0-9.13 7.12-21 15.2-26.72 20.9-.07.23 6.66-1.9 0 0-2.33.67-2.17 2-2.53 14.55-.09 1 0 2-.09 2.86a80.19 80.19 0 00-8.84 13.27c-5.89 10.16-12.39 26-18.68 51a129.62 129.62 0 0110-19.56c-5.23 13.3-10.29 34.17-11.3 66.33a186.79 186.79 0 014.86-19.66 183.64 183.64 0 0013.48 78 190.73 190.73 0 0019.8 37 175.38 175.38 0 00247.93 6.52q5.52-5.25 10.59-11z" fill="url(#c)" transform="translate(16 65.896) scale(.18859)"/><path d="M275.9 50.49c63.19-7.32 91.17-72.44 55.24-73.72-32.45-1-85.14 77.17-55.24 73.72z" fill="url(#d)" transform="translate(16 65.896) scale(.18859)"/><path d="M335.69-36.53c43.48-25.3 32.14-80 32.14-80s-16.78 19.49-28.18 50.56c-11.25 30.81-30.09 44.72-3.96 29.44z" fill="url(#e)" transform="translate(16 65.896) scale(.18859)"/><path d="M197.67 82.83c60.61 19.34 112.71-28.41 80.6-44.36-29.2-14.38-109.37 35.21-80.6 44.36z" fill="url(#f)" transform="translate(16 65.896) scale(.18859)"/><path d="M340.21-13.33c1.48-2.08 3.47-8.74 5.23-11.72 10.7-17.28 10.78-31 10.78-31.36 6.46-32.29 5.88-45.47 1.9-69.86-3.2-19.63-17.2-47.76-29.32-61.3-12.49-14-3.69-9.41-15.79-19.6-10.6-11.75-20.88-23.39-26.48-28.07-40.46-33.83-39.53-41.01-38.77-42.24l-.57.64c-.48-1.91-.82-3.52-.82-3.52s-22.12 22.12-26.77 59c-3 24.06 6 49.15 19 65.18a148 148 0 0022.89 22.5c9.86 14.15 15.28 31.62 15.28 50.4a85.3 85.3 0 01-104.29 83c-22.21-4.23-35-15.43-41.43-23a41.71 41.71 0 01-5.22-7.54c19.9 7.13 41.9 5.64 55.28-1.75s21.64-13 28.26-10.83 11.72-4.14 7.06-10.68-16.45-15.9-34.1-13.3c-13.5 2-25.86 11.55-43.55 2.27a35.6 35.6 0 01-3.32-2c-1.17-.69 3.79 1 2.63.26a87 87 0 01-11.09-6.6c-.26-.22 2.67.84 2.41.62-16.54-12.2-14.47-20.44-14-25.61a14.85 14.85 0 018.48-11.59c2.44 1.2 4 2.11 4 2.11s-1-1.91-1.61-2.92c.2-.08.39-.06.58-.13 2 .87 6.43 3.12 8.76 4.49a12.1 12.1 0 014 3.63s.8-.39.21-2.07a10.78 10.78 0 00-4.14-5.07h.19a35.12 35.12 0 015.12 3.2c.85-2.76 2.37-5.65 2-10.81-.2-3.63-.11-4.57-.82-6-.64-1.2.36-1.67 1.47-.42a11.51 11.51 0 00-1-2.85v-.09c1.44-4.32 29.35-15.57 31.35-16.83a27.15 27.15 0 008.22-8c1.55-2.22 2.72-5.33 3-10 .1-2.13-.56-3.81-8-5.42a199.16 199.16 0 00-21.9-2.9c-7.72-.68-12.25-5.69-14.83-10.32-.47-1-.95-1.9-1.43-2.8a20.6 20.6 0 01-1.1-3.24 61.44 61.44 0 0123.78-29.51c.62-.51-2.48.13-1.86-.38s5.46-2.3 6.35-2.68c1.09-.46-4.67-2.65-9.76-2.12a26.15 26.15 0 00-9 2.13c1.15-1 4.8-2.37 3.94-2.36-5.59.77-12.53 3.68-18.47 7a3.7 3.7 0 01.36-1.67c-2.77 1-9.56 5.31-11.54 8.9a16 16 0 00.11-2.08 34.42 34.42 0 00-5.67 5.32l-.1.08c-16-5.9-30.14-6.23-42-3.63-2.61-2.35-6.82-5.91-12.76-17.61-.4-.71-.62 1.46-.93.76-2.31-5.36-3.71-14.14-3.48-20.19 0 0-4.78 2.18-8.74 11.28-.74 1.57-1.19 2.44-1.68 3.37-.22.26.49-3 .38-2.81-.69 1.17-2.47 2.79-3.25 4.9-.54 1.56-1.29 2.43-1.77 4.38l-.11.18c0-.57.14-2.36 0-2A91.77 91.77 0 0037-213.63a107.72 107.72 0 00-5 28.93c-.09.94 0 2-.1 2.84-5 5.76-8.48 10.64-9.78 13.16-6.53 10.08-13.72 25.78-20.68 50.62a123.6 123.6 0 0111.07-19.4C6.72-124.29 1.12-103.58 0-71.7a170.32 170.32 0 015.38-19.49 165.08 165.08 0 0014.92 77.4c8 17.49 26.35 53 71.24 80.74 0 0 15.27 11.37 41.52 19.89 1.94.7 3.9 1.4 5.91 2.07-.63-.25-1.24-.52-1.83-.8A187.88 187.88 0 00191 96c68 .06 88-27.24 88-27.24l-.2.15c1-.9 1.88-1.84 2.77-2.82-10.72 10.13-35.2 10.8-44.35 10.07 15.61-4.58 25.88-8.46 45.85-16.11q3.49-1.3 7.17-3l.8-.36 1.45-.68a135.86 135.86 0 0027.26-17.07c20.06-16 24.42-31.64 26.71-41.94-.32 1-1.31 3.29-2 4.78-5.17 11.05-16.62 17.83-29.06 23.65a268.48 268.48 0 0016.45-24.22c4.06-4 5.33-10.3 8.36-14.54z" fill="url(#g)" transform="translate(16 65.896) scale(.18859)"/><path d="M315.8 24.99a128.58 128.58 0 0021.09-31c14.32-30.1 36.45-80.15 19-132.42-13.78-41.31-32.7-63.91-56.72-86-39-35.85-49.89-51.85-49.89-61.36 0 0-45 50.21-25.51 102.58s59.54 50.45 86 105.1C340.93-13.79 284.58 56.37 238 76.01c2.85-.63 103.58-23.43 108.88-81-.14 1.02-2.41 16.95-31.08 29.98z" fill="url(#h)" transform="translate(16 65.896) scale(.18859)"/><path d="M185.3-161.88c.15-3.4-1.61-5.69-29.75-8.33-11.58-1.07-16-11.77-17.36-16.27-4.12 10.7-5.82 21.92-4.9 35.49.62 8.89 6.6 18.44 9.46 24 0 0 .63-.82.93-1.13 5.38-5.6 27.91-14.13 30-15.34 2.32-1.43 11.23-7.92 11.62-18.42z" fill="url(#i)" transform="translate(16 65.896) scale(.18859)"/><path d="M61.42-225.08c-.4-.71-.62 1.46-.93.76a51.68 51.68 0 01-3.38-20.18s-4.78 2.18-8.73 11.28c-.74 1.63-1.21 2.53-1.68 3.43-.22.26.49-3 .38-2.81-.69 1.17-2.47 2.79-3.24 4.8a28.16 28.16 0 00-1.84 4.57c-.15.55.15-2.45 0-2.09-9.2 17.78-11 44.66-10 43.53 19.59-20.91 42-25.87 42-25.87-2.39-1.76-7.58-6.84-12.69-17.42z" fill="url(#j)" transform="translate(16 65.896) scale(.18859)"/><path d="M135.74-6.39c-27.05-11.55-57.81-27.84-56.65-64.85 1.58-48.74 45.45-39.11 45.45-39.11-1.66.4-6.08 3.55-7.65 6.91-1.66 4.2-4.68 13.69 4.48 23.63 14.39 15.59-29.56 37 38.28 77.43 1.71.93-15.9-.55-23.92-4z" fill="url(#k)" transform="translate(16 65.896) scale(.18859)"/><path d="M126.13-30.68c19.18 6.68 41.53 5.51 54.91-1.88 9-5 20.45-13 27.52-11a48.16 48.16 0 00-16.33-3.83 27.82 27.82 0 01-3.12-.12 52 52 0 00-6.11.33c-3.45.32-7.28 2.5-10.76 2.15-.19 0 3.38-1.46 3.09-1.4-1.84.38-3.85.47-6 .73-1.35.15-2.5.32-3.84.37-40 3.39-73.73-21.66-73.73-21.66-2.87 9.68 12.87 28.83 34.35 36.31z" fill="url(#l)" transform="translate(16 65.896) scale(.18859)"/><path d="M315.72 25.21c40.41-39.68 60.86-87.91 52.22-142a114.29 114.29 0 01-9.64 56.11c6.29-27.7 7-62.12-9.69-97.77-22.31-47.58-59-72.62-73-83.06-21.22-15.83-30-31.94-30.18-35.27-6.34 13-25.52 57.5-2.06 95.83 22 35.91 56.59 46.57 80.83 79.52 44.65 60.72-8.48 126.64-8.48 126.64z" fill="url(#m)" transform="translate(16 65.896) scale(.18859)"/><path d="M309.93-78c-14.12-29.18-31.75-41.9-48.43-55.7 1.94 2.72 2.42 3.68 3.49 5.43 14.68 15.64 36.32 53.8 20.61 101.7C256 63.59 137.72 21.13 125.32 9.21c5 52.18 92.36 77.15 149.22 43.31C306.9 21.89 333.08-30.18 309.93-78z" fill="url(#n)" transform="translate(16 65.896) scale(.18859)"/></g><g fill="#363959"><path d="M217.965 49.788h-4.479l-4.771 8.311-4.747-8.311h-4.653l7.02 10.724-7.925 11.974h4.48l5.642-9.605 5.556 9.605h4.78l-7.882-12.147zm-95.68 22.698h3.962V49.788h-3.962zm12.935-17.91l-.388-4.788h-3.39v22.696h3.973V60.78c0-3.53 2.585-7.451 5.426-7.451a7.098 7.098 0 011.982.259l.733-3.877a9.679 9.679 0 00-2.24-.259c-2.758 0-4.865 1.719-6.074 5.123zm-32.104 17.908h4.092v-13.05h9.69v-3.23h-9.69V46.082h11.198l.474-3.273h-15.765zm21.11-31.131c-1.642 0-2.757 1.162-2.757 2.714 0 1.507 1.119 2.67 2.758 2.67 1.68 0 2.8-1.163 2.8-2.67 0-1.552-1.12-2.714-2.8-2.714zm64.2 8.098c-6.46 0-10.164 4.687-10.164 11.703 0 7.186 3.66 11.845 10.122 11.845 6.418 0 10.122-4.866 10.122-11.888 0-7.197-3.618-11.662-10.08-11.662zm-.038 20.364c-3.79 0-5.858-2.758-5.858-8.656 0-5.944 2.11-8.521 5.9-8.521 3.748 0 5.815 2.577 5.815 8.477-.004 5.94-2.071 8.7-5.858 8.7zm-16.05-21.6c0-2.197.862-3.81 3.359-3.81a9.734 9.734 0 013.962.861l1.249-2.874c-1.81-.776-3.273-1.162-5.427-1.162-4.61 0-7.106 2.893-7.106 6.683V49.8h-4.053v3.047h4.049v19.639h3.963V52.845h5.081l.431-3.057h-5.512zm-18.89 1.232c-5.857 0-9.432 4.86-9.432 11.923 0 7.186 3.696 11.629 10.036 11.629 3.143 0 5.685-1.076 7.925-2.842l-1.718-2.37c-1.981 1.378-3.66 1.982-5.9 1.982-3.274 0-5.73-2.024-6.117-7.278h14.47c.043-.518.087-1.249.087-2.025-.015-6.932-3.244-11.018-9.36-11.018zm5.427 10.114h-10.652c.302-5.039 2.283-6.97 5.297-6.97 3.575 0 5.339 2.274 5.339 6.711zm63.67-8.461c0-.382-.263-.575-.809-.575h-.497v1.928h.298v-.787h.255l.46.787h.355l-.524-.836a.526.526 0 00.45-.513zm-1 .318v-.645h.234c.298 0 .46.078.46.326 0 .249-.162.319-.41.319zm.292-1.61a1.698 1.698 0 00-1.694 1.702v.015a1.665 1.665 0 001.642 1.687h.052a1.702 1.702 0 00.119-3.402h-.12zm0 3.148a1.394 1.394 0 01-1.41-1.382v-.056a1.419 1.419 0 011.383-1.453h.027a1.402 1.402 0 011.425 1.38v.057a1.417 1.417 0 01-1.376 1.458h-.062z"/><path d="M239.835 72.497l-1.628-5.072h-7.81l-1.628 5.072h-1.655l6.211-18.579h2.034l6.184 18.579zm-9.005-6.455h6.943l-3.444-10.795zm21.8-13.697l1.573.19v19.962h-1.356l-.19-2.17c-.814 1.41-2.197 2.468-4.258 2.468-3.31 0-5.316-2.82-5.316-7.323 0-4.367 2.088-7.459 5.56-7.459 1.953 0 3.173.922 3.987 1.926zm-3.987 19.148c1.899 0 3.038-.976 3.987-2.63v-7.405c-.84-1.193-1.98-2.143-3.716-2.143-2.495 0-4.177 2.143-4.15 6.13 0 3.96 1.492 6.048 3.879 6.048zm19.196-19.148l1.573.19v19.962h-1.356l-.19-2.17c-.814 1.41-2.197 2.468-4.258 2.468-3.309 0-5.316-2.82-5.316-7.323 0-4.367 2.088-7.459 5.56-7.459 1.953 0 3.173.922 3.987 1.926zm-3.987 19.148c1.898 0 3.038-.976 3.987-2.63v-7.405c-.84-1.193-1.98-2.143-3.716-2.143-2.495 0-4.177 2.143-4.15 6.13 0 3.96 1.492 6.048 3.879 6.048zm9.622-6.808h7.187V63.33h-7.187zm16.13-6.672c3.77 0 5.995 2.713 5.995 7.35 0 4.584-2.279 7.432-6.022 7.432-3.77 0-5.993-2.82-5.993-7.377s2.305-7.405 6.02-7.405zm0 1.33c-2.684 0-4.339 2.006-4.339 6.075 0 3.986 1.6 6.048 4.312 6.048 2.713 0 4.367-2.034 4.367-6.103 0-3.987-1.6-6.02-4.34-6.02zm16.213-1.33c-2.061 0-3.634 1.112-4.774 2.713l-.135-2.414h-1.356v14.185h1.573v-10.28c1.166-1.735 2.468-2.929 4.393-2.929 1.736 0 2.685.95 2.685 3.282v9.927h1.573V62.354c0-2.74-1.383-4.34-3.96-4.34zm12.388 0c-2.685 0-4.72 1.546-4.72 3.716 0 1.98 1.221 3.092 4.232 3.878 2.956.814 3.743 1.438 3.743 3.146 0 1.736-1.438 2.713-3.5 2.713-1.735 0-2.983-.543-4.176-1.492l-.868 1.003c1.22 1.031 2.767 1.817 5.072 1.817 2.82 0 5.126-1.491 5.126-4.122 0-2.414-1.464-3.472-4.556-4.285-2.55-.678-3.445-1.275-3.445-2.685 0-1.465 1.275-2.387 3.146-2.387 1.438 0 2.496.434 3.743 1.302l.732-1.03c-1.329-1.031-2.712-1.574-4.53-1.574z" fill-rule="evenodd"/><text x="102.764" y="34.78" fill-opacity=".66" font-family="sans-serif" font-size="15.505" letter-spacing="0" word-spacing="0" style="line-height:125%" transform="translate(-.885)"><tspan x="102.764" y="34.78">Available from</tspan></text></g><path fill="none" opacity=".05" stroke="#dadce0" stroke-dashoffset="89.999" d="M-21.49-16.054h413.68v186.5H-21.49z"/></svg>