<svg xmlns="http://www.w3.org/2000/svg" width="100.001" height="100"><path d="M50 0C22.43 0 0 22.43 0 50s22.43 50 50 50c3.908 0 7.683-.487 11.33-1.35l-5.343-13.317c-2.016 4.055-4.166 6.334-5.987 6.334a2.696 2.696 0 01-.958-.246c-.117-.046-.23-.083-.359-.146-.116-.046-.212-.146-.312-.196a8.313 8.313 0 01-1.692-1.562 14.15 14.15 0 01-1.154-1.542 23.875 23.875 0 01-.98-1.63c-.095-.178-.19-.374-.29-.553a40.737 40.737 0 01-2.493-6.042 61.07 61.07 0 01-1.204-4.017l-.19-.733h11.487l-3.333-8.333h-9.817a108.104 108.104 0 01-.733-6.446 157.798 157.798 0 01-.209-3.209c-.137-2.304-.262-4.6-.262-7.012 0-2.23.13-4.363.246-6.513.083-1.416.162-2.812.275-4.166.129-1.35.291-2.667.458-3.971l.292-2.017H61.23c.583 3.859 1.042 7.959 1.188 12.5h-20.75l.033.067 6.592 1.967 22.445 6.737c0-.146.013-.291.03-.437h20.687a40.362 40.362 0 01-1.137 6.316l7.941 2.392c1.109-4.117 1.742-8.417 1.742-12.875 0-27.57-22.43-50-50-50zm0 8.333c3.03 0 6.983 6.217 9.62 16.667H40.376c.05-.167.067-.358.117-.52.241-.947.537-1.793.795-2.688.342-1.071.65-2.196 1.009-3.138a36.25 36.25 0 012.312-5.112 26.62 26.62 0 011.092-1.759c.325-.47.65-.929.975-1.3.7-.833 1.32-1.354 1.842-1.662.083-.05.162-.096.241-.13.18-.1.342-.166.488-.229.262-.062.504-.129.75-.129zM36.767 10.53c-.521.996-.992 2.038-1.463 3.109-.15.358-.292.733-.425 1.108-.196.47-.392.929-.57 1.433-.084.196-.126.421-.192.617a64.946 64.946 0 00-2.217 7.796c-.033.133-.083.279-.113.408H16.733A42.042 42.042 0 0136.768 10.53zm26.483 0A41.917 41.917 0 0183.267 25H68.212c-1.237-5.483-2.879-10.45-4.962-14.47zm-51.4 22.804h18.458c-.183 1.35-.312 2.734-.458 4.117a129.85 129.85 0 00-.47 6.317c-.034.7-.118 1.366-.147 2.066H8.542a41.208 41.208 0 013.304-12.5zm57.846 0h18.458a41.208 41.208 0 013.3 12.5H70.768a124.367 124.367 0 00-1.071-12.5zM8.542 54.167h20.686c.046 1.154.146 2.291.208 3.45.05.895.084 1.808.167 2.687a98.05 98.05 0 00.683 6.363H11.85a41.208 41.208 0 01-3.304-12.5zm45.625 4.166L70.833 100l7.83-11.2L91.667 100 100 90.642 86.28 79.25l9.553-8.417zM16.75 75h15.02l.197.767c.129.583.275 1.137.42 1.708a68.282 68.282 0 001.775 5.875c.05.163.084.342.146.488.213.604.459 1.17.7 1.758l.359.912c.408.925.816 1.805 1.237 2.65l.146.313A41.663 41.663 0 0116.75 75z" fill="#fff" fill-rule="evenodd"/></svg>